<svg width="25" height="25" viewBox="0 0 25 25" fill="none" xmlns="http://www.w3.org/2000/svg">
<g id="phone-svgrepo-com 2">
<path id="Vector" d="M9.17695 4.51016C9.17695 4.51016 8.91913 3.90625 8.52538 3.90625C8.13788 3.90625 7.93632 4.08516 7.80195 4.20859C7.66757 4.33203 5.41913 6.17969 5.41913 6.17969C5.41913 6.17969 4.76523 6.75078 4.81523 7.825C4.85742 8.89922 5.06757 10.4281 6.1582 12.5578C7.24101 14.6828 9.95117 17.9297 11.6637 19.0711C11.6637 19.0711 13.2504 20.2883 14.7269 20.7828C15.1559 20.918 16.0137 21.0938 16.2137 21.0938C16.4168 21.0938 16.7754 21.0938 17.1871 20.793C17.6059 20.4891 19.9551 18.6 19.9551 18.6C19.9551 18.6 20.5301 18.0805 19.8621 17.4766C19.191 16.8727 17.1535 15.5297 16.7176 15.1766C16.2809 14.818 15.659 14.9758 15.3902 15.2188C15.1223 15.4633 14.6434 15.8656 14.5848 15.9164C14.4973 15.9836 14.2574 16.2016 13.9887 16.093C13.6465 15.9578 12.2434 15.1961 10.9426 13.4164C9.6496 11.6383 9.50742 11.057 9.31445 10.4289C9.28172 10.3361 9.28127 10.2349 9.31317 10.1417C9.34507 10.0486 9.40745 9.96892 9.49023 9.91563C9.68398 9.78125 10.3973 9.18672 10.3973 9.18672C10.3973 9.18672 10.859 8.73125 10.666 8.19453C10.473 7.65781 9.17695 4.51016 9.17695 4.51016Z" fill="white"/>
</g>
</svg>
