<svg width="225" height="56" viewBox="0 0 225 56" fill="none" xmlns="http://www.w3.org/2000/svg">
<g id="Group 269">
<g id="Group">
<g id="Group_2">
<path id="Vector" d="M68.6299 6.51538C68.6299 4.05399 68.7747 3.61963 71.0913 3.61963H76.8828L95.4156 27.5096L95.5604 27.944V3.61963H100.483C100.338 3.9092 100.338 5.35709 100.338 6.37061V31.4189C100.338 33.8803 99.7592 34.025 97.5874 34.025H92.2303L73.6975 9.9903L73.5527 9.41114V34.025H68.9195V6.51538H68.6299Z" fill="#2B6230"/>
<path id="Vector_2" d="M147.394 34.025C143.485 34.025 142.182 31.5637 141.024 29.1023C137.983 20.5598 134.798 12.0173 131.612 3.61963H138.852C141.458 11.0038 143.919 18.388 146.525 25.9169C147.105 27.944 148.118 28.2335 148.842 28.3783C149.132 28.3783 149.566 28.3783 149.856 28.3783C149.856 28.2335 150 27.6544 150 27.5096C152.607 19.9806 155.357 11.7277 158.253 3.61963H163.176C159.412 13.7548 155.792 23.8899 152.172 34.025H147.394Z" fill="#2B6230"/>
<path id="Vector_3" d="M182.433 3.04053C191.989 3.04053 199.518 4.48841 199.518 18.6776C199.518 33.3011 190.976 34.4594 181.564 34.4594C172.008 34.4594 164.479 33.0116 164.479 18.6776C164.479 4.19883 173.022 3.04053 182.433 3.04053ZM181.854 6.51542C174.904 6.51542 170.85 8.10809 170.85 18.8224C170.85 29.5367 174.904 30.9845 181.854 30.9845C188.804 30.9845 193.003 29.5367 193.003 18.8224C193.003 8.10809 188.804 6.51542 181.854 6.51542Z" fill="#2B6230"/>
<path id="Vector_4" d="M204.73 6.08104C204.73 4.48837 204.73 3.61963 207.047 3.61963H211.246V34.025H204.73V6.08104Z" fill="#2B6230"/>
</g>
<g id="Group_3">
<path id="Vector_5" d="M220.946 2.6062C223.117 2.6062 225 4.34366 225 6.66026C225 8.83207 223.262 10.7143 220.946 10.7143C218.774 10.7143 216.892 8.97686 216.892 6.66026C216.892 4.34366 218.774 2.6062 220.946 2.6062ZM220.946 9.99038C222.828 9.99038 224.276 8.39771 224.276 6.66026C224.276 4.77802 222.828 3.33014 220.946 3.33014C219.208 3.33014 217.616 4.77802 217.616 6.66026C217.616 8.39771 219.208 9.99038 220.946 9.99038ZM219.932 6.94983V8.5425H219.063V4.92281C219.063 4.63324 219.208 4.48844 219.498 4.48844C219.932 4.48844 221.814 4.48844 222.249 4.48844C222.828 4.63323 223.117 4.9228 223.117 5.50195C223.117 6.0811 222.973 6.37068 222.683 6.51546C222.683 6.51546 222.538 6.51546 222.394 6.51546H222.538C222.973 6.66025 222.973 6.94983 222.973 7.2394V8.25293C222.973 8.39772 222.973 8.39772 222.973 8.5425H222.394C222.249 8.5425 222.104 8.54251 222.104 8.25293V7.3842C222.104 7.09462 221.959 6.94983 221.525 6.94983H221.235C221.525 6.94983 220.801 6.94983 219.932 6.94983ZM221.67 6.51546C221.959 6.51546 222.394 6.37069 222.394 5.64675C222.394 5.21239 222.249 4.92281 221.959 4.92281C221.525 4.92281 220.511 4.92281 220.222 4.92281C220.222 4.92281 220.077 4.9228 220.077 5.06759V6.37069C220.222 6.51548 221.38 6.51546 221.67 6.51546Z" fill="#9BCB3C"/>
</g>
<g id="Group_4">
<path id="Vector_6" d="M15.2027 36.6313L14.4788 36.0521L15.6371 34.749C15.0579 33.8803 15.0579 32.722 15.7818 31.8533C16.5058 30.9846 17.6641 30.8398 18.5328 31.2741L19.6911 29.9711L21.139 31.1293C35.6178 18.388 49.8069 10.4247 49.8069 10.4247C39.9614 17.9537 31.5637 26.4962 24.7587 34.3147L25.7722 35.1834L24.7587 36.3417L43.8707 52.5579C53.7162 47.7799 60.5212 38.0792 60.5212 27.0753V0H31.1293C13.8996 0 0 12.8861 0 28.8128V54.4402C4.34363 47.9247 9.55599 41.9884 15.2027 36.6313Z" fill="#9BCB3C"/>
<path id="Vector_7" d="M21.5734 39.9614L20.5599 41.1197L19.5464 40.251C14.334 46.7664 10.4247 52.4132 8.25293 55.7433H29.1024C32.4325 55.7433 35.6178 55.3089 38.5136 54.4402L21.5734 39.9614Z" fill="#2B6230"/>
</g>
<path id="Vector_8" d="M127.414 8.25287C126.111 4.92276 124.373 3.33008 120.174 3.33008C115.396 3.33008 113.804 5.06754 112.645 8.25287L103.379 34.0251H108.302L111.053 26.0617L112.066 23.3108L116.12 11.0038C116.41 9.84553 116.844 8.68722 118.871 8.68722C120.753 8.68722 121.188 9.70074 121.477 11.0038L125.676 23.3108L126.979 26.0617L129.875 34.0251H136.825L127.414 8.25287Z" fill="#2B6230"/>
<g id="Group_5">
<g id="Group_6">
<path id="Vector_9" d="M89.4805 44.3051C89.4805 40.1063 91.5075 39.3823 95.272 39.3823C96.5751 39.3823 97.8782 39.3823 98.7469 39.6719C99.6156 39.8167 99.7604 40.251 99.7604 40.5406V41.1198C99.1812 40.6854 96.4303 40.5406 95.5616 40.5406C92.521 40.5406 91.5075 41.4093 91.5075 44.3051C91.5075 47.2008 92.3762 48.0696 94.9824 48.0696C97.4438 48.0696 98.3125 47.4904 98.3125 45.4634C98.3125 45.1738 98.3125 44.8843 98.3125 44.7395H94.2585C94.2585 43.8707 94.4032 43.5812 95.272 43.5812H100.195V45.4634C100.195 48.7935 98.1678 49.2279 94.9824 49.2279H94.548C90.9283 49.0831 89.4805 48.2144 89.4805 44.3051Z" fill="#9BCB3C"/>
<path id="Vector_10" d="M114.24 45.3185V49.083H112.213V40.6853C112.213 39.8166 112.502 39.527 113.371 39.527C114.674 39.527 119.018 39.3822 120.031 39.527C121.479 39.6718 122.203 40.3957 122.203 42.1332C122.203 43.4363 121.914 44.1602 121.19 44.5946C121.045 44.7394 120.755 44.7394 120.611 44.7394C120.755 44.7394 120.9 44.7394 121.045 44.7394C122.058 44.8841 122.203 45.6081 122.203 46.332V48.6486C122.203 48.9382 122.348 49.2278 122.348 49.2278H120.9C120.466 49.2278 120.176 49.083 120.176 48.5038V46.4768C120.176 45.6081 119.887 45.3185 118.873 45.3185H118.149C118.149 45.3185 116.267 45.1737 114.24 45.3185ZM118.439 44.305C119.307 44.305 120.031 43.8706 120.031 42.4227C120.031 41.4092 119.597 40.8301 118.873 40.6853C117.86 40.5405 115.253 40.6853 114.53 40.6853C114.385 40.6853 114.095 40.6853 114.095 41.1197V44.305C114.819 44.1602 117.715 44.305 118.439 44.305Z" fill="#9BCB3C"/>
<path id="Vector_11" d="M139.867 39.2375C142.908 39.2375 145.225 39.6719 145.225 44.1603C145.225 48.7935 142.618 49.0831 139.578 49.0831C136.537 49.0831 134.221 48.6487 134.221 44.1603C134.221 39.6719 136.972 39.2375 139.867 39.2375ZM139.723 40.3959C137.551 40.3959 136.248 40.8302 136.248 44.3051C136.248 47.6352 137.551 48.0696 139.723 48.0696C141.894 48.0696 143.198 47.6352 143.198 44.3051C143.198 40.8302 141.894 40.3959 139.723 40.3959Z" fill="#9BCB3C"/>
<path id="Vector_12" d="M157.241 40.3958C157.241 39.8167 157.241 39.5271 157.965 39.5271H166.508V40.6854H159.268V43.5812H165.928V44.7395H159.268V49.2279H157.241V40.3958Z" fill="#9BCB3C"/>
<path id="Vector_13" d="M183.882 39.2375C186.923 39.2375 189.239 39.6719 189.239 44.1603C189.239 48.7935 186.633 49.0831 183.592 49.0831C180.552 49.0831 178.235 48.6487 178.235 44.1603C178.235 39.6719 180.842 39.2375 183.882 39.2375ZM183.737 40.3959C181.565 40.3959 180.262 40.8302 180.262 44.3051C180.262 47.6352 181.565 48.0696 183.737 48.0696C185.909 48.0696 187.212 47.6352 187.212 44.3051C187.212 40.8302 185.764 40.3959 183.737 40.3959Z" fill="#9BCB3C"/>
<path id="Vector_14" d="M205.311 47.9248C205.6 47.9248 206.035 47.9248 206.324 47.9248C207.917 47.9248 208.931 47.4904 208.931 46.0426C208.931 44.8843 208.351 44.5947 207.048 44.5947H204.732C203.139 44.5947 201.257 44.5947 201.257 42.1333C201.257 39.3823 203.429 39.2375 206.18 39.2375C207.483 39.2375 209.22 39.2375 210.089 39.5271C210.668 39.6719 210.958 39.9615 210.958 40.2511V40.8302C210.523 40.2511 208.351 40.2511 207.338 40.2511H206.035C204.587 40.2511 203.429 40.5406 203.429 41.8437C203.429 43.002 204.153 43.1468 205.311 43.1468H207.917C209.799 43.1468 211.102 43.4364 211.102 45.753C211.102 47.9248 209.51 48.6488 207.338 48.7935C206.469 48.7935 205.745 48.7935 204.877 48.7935C203.284 48.7935 201.257 48.6487 201.257 47.78V47.0561C202.126 47.9248 204.153 47.9248 205.311 47.9248Z" fill="#9BCB3C"/>
</g>
<path id="Vector_15" d="M76.1589 40.975C75.7245 39.9615 75.1453 39.3823 73.8422 39.3823C72.3944 39.3823 71.8152 39.9615 71.5256 40.975L68.6299 49.0831H70.2226L72.684 41.8437C72.8288 41.5541 72.9735 41.1198 73.5527 41.1198C74.1318 41.1198 74.2766 41.4093 74.4214 41.8437L77.0276 49.0831H79.1994L76.1589 40.975Z" fill="#9BCB3C"/>
</g>
</g>
</g>
</svg>
